<svg xmlns="http://www.w3.org/2000/svg" role="img" aria-labelledby="title desc" viewBox="0 0 1024 1024">
<title id="title">暗黑大陸 AI Operation Sigil</title>
<desc id="desc">An obsidian continent-heart held by a luminous compass ring.</desc>
<defs>
  <radialGradient id="g" cx="50%" cy="42%" r="70%">
    <stop offset="0" stop-color="#a78bfa" stop-opacity="0.72"/>
    <stop offset="0.48" stop-color="#111827"/>
    <stop offset="1" stop-color="#050308"/>
  </radialGradient>
  <linearGradient id="ring" x1="0" y1="0" x2="1" y2="1">
    <stop offset="0" stop-color="#00f0ff"/>
    <stop offset="0.45" stop-color="#a78bfa"/>
    <stop offset="1" stop-color="#ff4d6d"/>
  </linearGradient>
</defs>
<rect width="1024" height="1024" rx="160" fill="#050308"/>
<circle cx="512" cy="512" r="382" fill="url(#g)" stroke="url(#ring)" stroke-width="18"/>
<path d="M303 665 C260 526 315 360 444 298 C585 230 735 311 762 452 C782 558 724 671 622 724 C505 785 350 774 303 665 Z" fill="#111827" stroke="#ffd166" stroke-width="10"/>
<path d="M357 610 C397 498 468 419 588 357 C557 454 596 542 676 614 C553 584 456 587 357 610 Z" fill="#ff4d6d" opacity="0.9"/>
<path d="M512 196 V118 M512 906 V828 M196 512 H118 M906 512 H828" stroke="#00f0ff" stroke-width="16" stroke-linecap="round"/>
<text x="512" y="575" text-anchor="middle" font-family="system-ui, -apple-system, BlinkMacSystemFont, 'Segoe UI', sans-serif" font-size="210" font-weight="900" fill="#f8fafc">暗</text>
<text x="512" y="746" text-anchor="middle" font-family="monospace" font-size="52" letter-spacing="8" fill="#ffd166">AI OP</text>
</svg>
